# xmcd CD database file
#
# Track frame offsets:
#	150
#	16576
#	85971
#
# Disc length: 2225 seconds
#
# Revision: 0
# Processed by: cddbd v1.5.2PL0 Copyright (c) Steve Scherf et al.
# Submitted via: CDex 1.70beta2
#
DISCID=1308af03
DTITLE=Maritza - PM Meditation
DYEAR=1900
DGENRE=New Age
TTITLE0=yoga postures
TTITLE1=breathing
TTITLE2=meditation
EXTD=
EXTT0=
EXTT1=
EXTT2=
PLAYORDER=
